<svg width="26" height="26" viewBox="0 0 26 26" fill="none" xmlns="http://www.w3.org/2000/svg">
<g clip-path="url(#clip0_101_135)">
<path d="M13 18.2C14.3791 18.2 15.7018 17.6522 16.677 16.677C17.6521 15.7018 18.2 14.3792 18.2 13C18.2 11.6209 17.6521 10.2983 16.677 9.32309C15.7018 8.3479 14.3791 7.80005 13 7.80005V18.2Z" fill="white"/>
<path fill-rule="evenodd" clip-rule="evenodd" d="M13 0C5.8201 0 0 5.8201 0 13C0 20.1799 5.8201 26 13 26C20.1799 26 26 20.1799 26 13C26 5.8201 20.1799 0 13 0ZM13 2.6V7.8C11.6209 7.8 10.2982 8.34786 9.32304 9.32304C8.34786 10.2982 7.8 11.6209 7.8 13C7.8 14.3791 8.34786 15.7018 9.32304 16.677C10.2982 17.6521 11.6209 18.2 13 18.2V23.4C15.7583 23.4 18.4035 22.3043 20.3539 20.3539C22.3043 18.4035 23.4 15.7583 23.4 13C23.4 10.2417 22.3043 7.59647 20.3539 5.64609C18.4035 3.69571 15.7583 2.6 13 2.6Z" fill="white"/>
</g>
<defs>
<clipPath id="clip0_101_135">
<rect width="26" height="26" fill="white"/>
</clipPath>
</defs>
</svg>
