<svg width="26" height="26" viewBox="0 0 26 26" fill="none" xmlns="http://www.w3.org/2000/svg">
<path d="M12.9078 24.2069H10.1418C6.5461 24.2069 3.68794 21.4276 3.68794 17.931V14.3448H5.53191V17.931C5.53191 20.4414 7.56028 22.4138 10.1418 22.4138H12.9078V24.2069ZM23.9716 26H26L21.7589 16.1379H19.7305L15.4894 26H17.5177L18.2553 24.2069H23.1418L23.9716 26ZM19.0851 22.4138L20.7447 18.469L22.4043 22.4138H19.0851ZM23.9716 12.5517H22.1277V8.96552C22.1277 6.45517 20.0993 4.48276 17.5177 4.48276H13.8298V2.68966H17.5177C21.1135 2.68966 23.9716 5.46897 23.9716 8.96552V12.5517ZM11.0638 3.58621V1.7931H6.4539V0H4.60993V1.7931H0V3.58621H7.56028C7.37589 4.3931 6.82269 5.82759 5.53191 7.17241C4.97872 6.54483 4.51773 5.91724 4.24113 5.37931H2.12057C2.48936 6.27586 3.13475 7.35172 4.05674 8.33793C3.31915 8.96552 2.21277 9.50345 0.921986 9.95172L1.56738 11.6552C3.22695 11.0276 4.51773 10.3103 5.53191 9.5931C6.5461 10.4 7.83688 11.1172 9.49645 11.6552L10.1418 9.95172C8.85106 9.50345 7.74468 8.87586 6.91489 8.33793C8.66667 6.54483 9.21986 4.66207 9.40426 3.58621H11.0638Z" fill="#AEFE00"/>
</svg>
