<svg width="26" height="26" viewBox="0 0 26 26" fill="none" xmlns="http://www.w3.org/2000/svg">
<path fill-rule="evenodd" clip-rule="evenodd" d="M8.31771 9.36933C7.84102 9.36933 7.369 9.46322 6.92859 9.64565C6.48818 9.82807 6.08802 10.0955 5.75094 10.4325C5.41387 10.7696 5.14649 11.1698 4.96406 11.6102C4.78164 12.0506 4.68775 12.5226 4.68775 12.9993C4.68775 13.476 4.78164 13.948 4.96406 14.3884C5.14649 14.8288 5.41387 15.229 5.75094 15.5661C6.08802 15.9031 6.48818 16.1705 6.92859 16.3529C7.369 16.5354 7.84102 16.6293 8.31771 16.6293H11.9477V9.36933H8.31771ZM11.9477 7.26134H8.31771C7.3548 7.26134 6.43133 6.87882 5.75044 6.19794C5.06956 5.51706 4.68705 4.59358 4.68705 3.63067C4.68705 2.66776 5.06956 1.74428 5.75044 1.0634C6.43133 0.382516 7.3548 0 8.31771 0H11.9477V7.26134ZM14.0557 0V7.26134H17.6856C18.6362 7.24264 19.5415 6.8519 20.2071 6.17305C20.8727 5.49421 21.2456 4.5814 21.2456 3.63067C21.2456 2.67994 20.8727 1.76713 20.2071 1.08828C19.5415 0.409436 18.6362 0.018702 17.6856 0H14.0557ZM17.6856 9.36793C16.7328 9.36781 15.8181 9.74233 15.139 10.4107C14.4599 11.079 14.0708 11.9876 14.0557 12.9403V13.0569C14.0673 13.7722 14.29 14.4682 14.6959 15.0573C15.1018 15.6464 15.6727 16.1025 16.3369 16.3682C17.0012 16.6339 17.7291 16.6974 18.4293 16.5508C19.1295 16.4041 19.7708 16.0538 20.2726 15.5439C20.7743 15.034 21.1142 14.3871 21.2496 13.6846C21.3849 12.9821 21.3097 12.2553 21.0333 11.5955C20.7569 10.9356 20.2917 10.3721 19.6961 9.97583C19.1005 9.57951 18.401 9.36802 17.6856 9.36793ZM8.31771 18.7373C7.59944 18.737 6.89721 18.9497 6.29985 19.3486C5.70249 19.7474 5.23683 20.3145 4.96176 20.978C4.6867 21.6415 4.61458 22.3717 4.75454 23.0762C4.8945 23.7807 5.24024 24.4279 5.74805 24.9359C6.25585 25.4439 6.90289 25.7899 7.60735 25.9301C8.3118 26.0704 9.04202 25.9985 9.70565 25.7237C10.3693 25.4489 10.9365 24.9835 11.3356 24.3863C11.7347 23.7891 11.9477 23.0869 11.9477 22.3686V18.7373H8.31771Z" fill="white"/>
</svg>
