<svg width="26" height="26" viewBox="0 0 26 26" fill="none" xmlns="http://www.w3.org/2000/svg">
<path fill-rule="evenodd" clip-rule="evenodd" d="M8.31759 9.36933C7.8409 9.36933 7.36887 9.46322 6.92847 9.64565C6.48806 9.82807 6.08789 10.0955 5.75082 10.4325C5.41375 10.7696 5.14636 11.1698 4.96394 11.6102C4.78152 12.0506 4.68763 12.5226 4.68763 12.9993C4.68763 13.476 4.78152 13.948 4.96394 14.3884C5.14636 14.8288 5.41375 15.229 5.75082 15.5661C6.08789 15.9031 6.48806 16.1705 6.92847 16.3529C7.36887 16.5354 7.8409 16.6293 8.31759 16.6293H11.9476V9.36933H8.31759ZM11.9476 7.26134H8.31759C7.35468 7.26134 6.4312 6.87882 5.75032 6.19794C5.06944 5.51706 4.68692 4.59358 4.68692 3.63067C4.68692 2.66776 5.06944 1.74428 5.75032 1.0634C6.4312 0.382516 7.35468 0 8.31759 0H11.9476V7.26134ZM14.0556 0V7.26134H17.6855C18.6361 7.24264 19.5414 6.8519 20.207 6.17305C20.8726 5.49421 21.2455 4.5814 21.2455 3.63067C21.2455 2.67994 20.8726 1.76713 20.207 1.08828C19.5414 0.409436 18.6361 0.018702 17.6855 0H14.0556ZM17.6855 9.36793C16.7327 9.36781 15.818 9.74233 15.1389 10.4107C14.4598 11.079 14.0707 11.9876 14.0556 12.9403V13.0569C14.0672 13.7722 14.2899 14.4682 14.6958 15.0573C15.1017 15.6464 15.6726 16.1025 16.3368 16.3682C17.001 16.6339 17.729 16.6974 18.4292 16.5508C19.1294 16.4041 19.7707 16.0538 20.2724 15.5439C20.7742 15.034 21.1141 14.3871 21.2495 13.6846C21.3848 12.9821 21.3095 12.2553 21.0332 11.5955C20.7568 10.9356 20.2916 10.3721 19.696 9.97583C19.1004 9.57951 18.4009 9.36802 17.6855 9.36793ZM8.31759 18.7373C7.59932 18.737 6.89709 18.9497 6.29973 19.3486C5.70237 19.7474 5.23671 20.3145 4.96164 20.978C4.68658 21.6415 4.61446 22.3717 4.75442 23.0762C4.89438 23.7807 5.24012 24.4279 5.74792 24.9359C6.25572 25.4439 6.90277 25.7899 7.60723 25.9301C8.31168 26.0704 9.0419 25.9985 9.70553 25.7237C10.3692 25.4489 10.9364 24.9835 11.3355 24.3863C11.7345 23.7891 11.9476 23.0869 11.9476 22.3686V18.7373H8.31759Z" fill="black"/>
</svg>
