<svg width="26" height="26" viewBox="0 0 26 26" fill="none" xmlns="http://www.w3.org/2000/svg">
<path d="M7.67017 1.47285C8.56485 1.77476 9.41571 2.19358 10.2006 2.71844C11.3099 2.43452 12.4506 2.29208 13.5957 2.29451C14.7781 2.29451 15.9189 2.44217 16.9883 2.71725C17.7729 2.1929 18.6234 1.77449 19.5176 1.47285C20.3476 1.19063 21.53 0.733358 22.2326 1.51096C22.7089 2.03968 22.828 2.92564 22.9126 3.60202C23.0078 4.357 23.0305 5.34061 22.7804 6.31708C23.7366 7.55195 24.313 9.02498 24.313 10.6302C24.313 13.0618 22.9959 15.1731 21.0466 16.6355C20.108 17.3296 19.0676 17.8743 17.9624 18.2502C18.2172 18.8337 18.3589 19.4791 18.3589 20.1567V23.7291C18.3589 24.045 18.2334 24.3478 18.0101 24.5712C17.7868 24.7945 17.4839 24.9199 17.1681 24.9199H10.0232C9.70739 24.9199 9.4045 24.7945 9.18118 24.5712C8.95786 24.3478 8.8324 24.045 8.8324 23.7291V22.549C7.69518 22.6884 6.74134 22.5645 5.93039 22.2204C5.08253 21.8607 4.49189 21.3034 4.04772 20.77C3.62617 20.2651 3.16652 19.1266 2.50204 18.9052C2.35364 18.8557 2.21642 18.7776 2.09823 18.6751C1.98003 18.5727 1.88317 18.448 1.81317 18.3081C1.67181 18.0256 1.64846 17.6985 1.74826 17.3988C1.84806 17.0991 2.06283 16.8513 2.34534 16.7099C2.62784 16.5685 2.95492 16.5452 3.25464 16.645C4.04772 16.9094 4.56453 17.4809 4.9182 17.9406C5.48979 18.6789 5.95421 19.6435 6.85923 20.0281C7.23195 20.1865 7.77853 20.2901 8.63354 20.1734L8.8324 20.1329C8.83514 19.4849 8.97008 18.8443 9.22894 18.2502C8.12372 17.8743 7.08333 17.3296 6.14474 16.6355C4.19538 15.1731 2.87834 13.063 2.87834 10.6302C2.87834 9.02737 3.4535 7.55552 4.40734 6.32184C4.15727 5.34537 4.17871 4.35938 4.27397 3.60322L4.27993 3.55796C4.36686 2.86491 4.46808 2.04921 4.95393 1.51096C5.65651 0.733358 6.84017 1.19182 7.66898 1.47404L7.67017 1.47285Z" fill="#5900A6"/>
</svg>
