<svg width="26" height="26" viewBox="0 0 26 26" fill="none" xmlns="http://www.w3.org/2000/svg">
<path d="M7.98291 0.392774C8.87759 0.694684 9.72845 1.11351 10.5134 1.63836C11.6227 1.35444 12.7634 1.212 13.9084 1.21443C15.0909 1.21443 16.2317 1.3621 17.301 1.63717C18.0856 1.11282 18.9361 0.694407 19.8303 0.392774C20.6603 0.110552 21.8428 -0.34672 22.5454 0.43088C23.0217 0.959601 23.1408 1.84557 23.2253 2.52195C23.3206 3.27692 23.3432 4.26053 23.0931 5.237C24.0494 6.47187 24.6257 7.94491 24.6257 9.55012C24.6257 11.9818 23.3087 14.0931 21.3593 15.5554C20.4207 16.2495 19.3803 16.7942 18.2751 17.1701C18.5299 17.7536 18.6716 18.399 18.6716 19.0766V22.6491C18.6716 22.9649 18.5462 23.2678 18.3229 23.4911C18.0995 23.7144 17.7967 23.8399 17.4808 23.8399H10.336C10.0201 23.8399 9.71725 23.7144 9.49393 23.4911C9.27061 23.2678 9.14515 22.9649 9.14515 22.6491V21.469C8.00792 21.6083 7.05408 21.4844 6.24314 21.1403C5.39528 20.7807 4.80464 20.2234 4.36046 19.6899C3.93892 19.185 3.47926 18.0466 2.81479 17.8251C2.66638 17.7757 2.52917 17.6975 2.41097 17.5951C2.29277 17.4926 2.19591 17.3679 2.12592 17.228C1.98455 16.9455 1.9612 16.6184 2.061 16.3187C2.1608 16.019 2.37558 15.7712 2.65808 15.6298C2.94058 15.4885 3.26767 15.4651 3.56738 15.5649C4.36046 15.8293 4.87728 16.4009 5.23095 16.8605C5.80254 17.5988 6.26695 18.5634 7.17197 18.948C7.54469 19.1064 8.09128 19.21 8.94628 19.0933L9.14515 19.0528C9.14789 18.4048 9.28282 17.7642 9.54169 17.1701C8.43646 16.7942 7.39608 16.2495 6.45748 15.5554C4.50812 14.0931 3.19109 11.9829 3.19109 9.55012C3.19109 7.94729 3.76625 6.47544 4.72009 5.24176C4.47002 4.2653 4.49145 3.2793 4.58672 2.52314L4.59267 2.47789C4.6796 1.78483 4.78082 0.969127 5.26667 0.43088C5.96925 -0.34672 7.15292 0.111743 7.98172 0.393965L7.98291 0.392774Z" fill="white"/>
</svg>
