<svg width="26" height="26" viewBox="0 0 26 26" fill="none" xmlns="http://www.w3.org/2000/svg">
<path d="M1 13.2652C1 10.2895 1 8.8023 1.624 7.5699C2.2456 6.3362 3.3844 5.5718 5.6608 4.0404L8.0608 2.4271C10.4668 0.8086 11.6704 0 13 0C14.3296 0 15.532 0.8086 17.9392 2.4271L20.3392 4.0404C22.6156 5.5718 23.7544 6.3362 24.3772 7.5699C25 8.8036 25 10.2895 25 13.2639V15.2425C25 20.3125 25 22.8488 23.5936 24.4244C22.1872 26 19.9252 26 15.4 26H10.6C6.0748 26 3.8116 26 2.4064 24.4244C1.0012 22.8488 1 20.3138 1 15.2425V13.2652Z" fill="#FF009D"/>
<path d="M12.5625 20C12.5625 20.2486 12.6613 20.4871 12.8371 20.6629C13.0129 20.8387 13.2514 20.9375 13.5 20.9375C13.7486 20.9375 13.9871 20.8387 14.1629 20.6629C14.3387 20.4871 14.4375 20.2486 14.4375 20V16.25C14.4375 16.0014 14.3387 15.7629 14.1629 15.5871C13.9871 15.4113 13.7486 15.3125 13.5 15.3125C13.2514 15.3125 13.0129 15.4113 12.8371 15.5871C12.6613 15.7629 12.5625 16.0014 12.5625 16.25V20Z" fill="white"/>
</svg>
