<svg width="26" height="26" viewBox="0 0 26 26" fill="none" xmlns="http://www.w3.org/2000/svg">
<path fill-rule="evenodd" clip-rule="evenodd" d="M1.624 7.5699C1 8.801 1 10.2895 1 13.2639V15.2425C1 20.3125 1 22.8488 2.4064 24.4244C3.8128 26 6.0748 26 10.6 26H15.4C19.9252 26 22.1884 26 23.5936 24.4244C24.9988 22.8488 25 20.3138 25 15.2425V13.2652C25 10.2895 25 8.8023 24.376 7.5699C23.7544 6.3362 22.6156 5.5718 20.3392 4.0404L17.9392 2.4271C15.5332 0.8086 14.3296 0 13 0C11.6704 0 10.468 0.8086 8.0608 2.4271L5.6608 4.0404C3.3844 5.5718 2.2468 6.3362 1.624 7.5699ZM12.1 20.8C12.1 21.0586 12.1948 21.3066 12.3636 21.4894C12.5324 21.6723 12.7613 21.775 13 21.775C13.2387 21.775 13.4676 21.6723 13.6364 21.4894C13.8052 21.3066 13.9 21.0586 13.9 20.8V16.9C13.9 16.6414 13.8052 16.3934 13.6364 16.2106C13.4676 16.0277 13.2387 15.925 13 15.925C12.7613 15.925 12.5324 16.0277 12.3636 16.2106C12.1948 16.3934 12.1 16.6414 12.1 16.9V20.8Z" fill="black"/>
</svg>
